<svg xmlns="http://www.w3.org/2000/svg" viewBox="0 0 64 64" role="img" aria-label="茂名禄段荔枝网站图标">
  <defs>
    <linearGradient id="fruitFill" x1="0%" y1="0%" x2="100%" y2="100%">
      <stop offset="0%" stop-color="#f04e5b"/>
      <stop offset="100%" stop-color="#d92f40"/>
    </linearGradient>
    <linearGradient id="leafFill" x1="0%" y1="0%" x2="100%" y2="100%">
      <stop offset="0%" stop-color="#4ec2a2"/>
      <stop offset="100%" stop-color="#2a9d8f"/>
    </linearGradient>
  </defs>
  <rect width="64" height="64" rx="16" fill="#1d3557"/>
  <path d="M36 12c4-5 11-6 16-1c-7 0-11 2-14 7c-3-1-4-3-2-6z" fill="url(#leafFill)"/>
  <path d="M29 13c1-2 3-3 5-4c0 3-1 6-1 10h-4c0-3 0-4 0-6z" fill="#8b5e34"/>
  <circle cx="31" cy="36" r="17" fill="url(#fruitFill)"/>
  <path d="M17 39c3 8 10 14 18 14c7 0 12-2 16-7c-2 5-8 8-17 8c-10 0-16-5-17-15z" fill="#b61f34" opacity="0.55"/>
  <ellipse cx="25" cy="28" rx="5" ry="3.5" fill="#ffffff" opacity="0.18" transform="rotate(-20 25 28)"/>
  <g fill="#ffd9dd">
    <circle cx="24" cy="30" r="2"/>
    <circle cx="31" cy="28" r="2"/>
    <circle cx="38" cy="31" r="2"/>
    <circle cx="25" cy="38" r="2"/>
    <circle cx="32" cy="36" r="2"/>
    <circle cx="39" cy="39" r="2"/>
    <circle cx="30" cy="44" r="2"/>
  </g>
</svg>
